<svg width="140" height="51" viewBox="0 0 140 51" fill="none" xmlns="http://www.w3.org/2000/svg">
<path d="M125.702 42.0171C125.599 42.0255 125.496 42.0413 125.393 42.0412C121.327 42.0393 117.262 42.036 113.152 41.994C112.957 41.9737 112.806 41.9922 112.655 42.0106C112.366 42.0182 112.078 42.0258 111.743 41.9923C111.457 41.9355 111.216 41.9009 110.976 41.9095C110.734 41.9183 110.621 41.8434 110.622 41.5411C110.632 40.095 110.632 38.6488 110.622 37.2027C110.62 36.9059 110.715 36.8005 110.964 36.8316C111.054 36.8429 111.146 36.8333 111.237 36.8333C117.292 36.8333 123.346 36.8343 129.401 36.8271C129.549 36.8269 129.697 36.7356 129.868 36.67C129.918 36.6255 129.944 36.5977 129.997 36.5544C130.041 36.4862 130.074 36.4335 130.075 36.3807C130.078 34.9909 130.079 33.6011 130.073 32.2113C130.072 32.1278 130.003 32.0447 129.955 31.9232C129.944 31.6862 129.944 31.4875 129.944 31.2614C129.738 31.2614 129.597 31.2614 129.456 31.2613C123.334 31.2586 117.212 31.2561 111.09 31.252C110.935 31.2519 110.78 31.2334 110.626 31.1841C110.627 29.6398 110.627 28.1351 110.627 26.6303C110.627 26.0326 110.627 26.0323 111.152 26.0323C117.283 26.0323 123.414 26.0292 129.545 26.0407C129.905 26.0414 130.073 25.9363 130.071 25.5097C130.067 24.0219 130.083 22.5339 130.072 21.0461C130.069 20.7083 130.168 20.6219 130.454 20.6252C131.755 20.6401 133.057 20.6437 134.359 20.6234C134.689 20.6183 134.774 20.7366 134.772 21.0993C134.759 23.2973 134.765 25.4955 134.765 27.6936C134.765 32.2226 134.763 36.7516 134.769 41.2806C134.77 41.6581 134.846 42.0469 134.31 41.8896C134.266 41.8767 134.197 41.9743 134.139 42.0205C132.81 42.0261 131.48 42.0316 130.113 42.006C130.041 41.9425 130.006 41.9103 129.971 41.878C129.964 41.7837 129.958 41.6894 129.989 41.5456C130.042 41.4572 130.073 41.4184 130.073 41.3794C130.077 40.1855 130.08 38.9915 130.071 37.7976C130.07 37.7117 129.974 37.6268 129.922 37.5415C129.908 37.5391 129.895 37.5367 129.858 37.4955C129.759 37.4727 129.684 37.4888 129.608 37.5049C129.585 37.6134 129.561 37.7219 129.508 37.8847C129.242 38.1398 128.766 38.0663 128.887 38.6316C128.362 38.7554 128.362 38.7554 128.357 39.4253C128.247 39.443 128.137 39.4607 127.973 39.4559C127.858 39.5902 127.796 39.7471 127.734 39.9042C127.242 39.9744 127.216 40.0107 127.333 40.4598C127.272 40.5491 127.226 40.6707 127.145 40.7198C127.034 40.7873 126.897 40.8 126.737 40.8786C126.714 40.9774 126.725 41.0338 126.736 41.0902C126.742 41.1292 126.748 41.1681 126.709 41.2336C126.526 41.3341 126.289 41.0904 126.232 41.4307C126.233 41.5561 126.234 41.6814 126.195 41.8424C126.003 41.9244 125.853 41.9708 125.702 42.0171Z" fill="white"/>
<path d="M23.5781 26.7425C23.5781 28.2584 23.5781 29.7303 23.5781 31.261C22.7562 31.261 21.9703 31.261 21.1409 31.261C21.1409 33.0832 21.1409 34.8469 21.1409 36.654C20.3079 36.654 19.5192 36.654 18.68 36.654C18.68 38.4573 18.68 40.2181 18.68 42.0143C16.9862 42.0143 15.3435 42.0143 13.6566 42.0143C13.6566 41.8315 13.6567 41.6734 13.6566 41.5153C13.6553 40.0397 13.6468 38.564 13.6583 37.0886C13.6609 36.7605 13.573 36.6525 13.2799 36.6588C12.4339 36.6772 11.5874 36.6635 10.7411 36.6625C10.6145 36.6623 10.4879 36.6625 10.3166 36.6625C10.3166 34.8526 10.3166 33.0894 10.3166 31.2639C9.47516 31.2639 8.67671 31.2639 7.832 31.2639C7.832 30.8521 7.83213 30.5016 7.83197 30.1512C7.8314 28.8969 7.81557 27.6423 7.83883 26.3886C7.84632 25.9849 7.72758 25.8865 7.39477 25.8998C6.74817 25.9256 6.1002 25.9074 5.40797 25.9074C5.40797 25.6068 5.40814 25.3886 5.40794 25.1703C5.40666 23.7538 5.39853 22.3371 5.40933 20.9206C5.41165 20.6163 5.33742 20.5053 5.05886 20.5133C4.38431 20.5328 3.70902 20.5196 3.00342 20.5196C3.00342 18.7239 3.00342 16.9643 3.00342 15.1717C4.59189 15.1717 6.17296 15.1717 7.79576 15.1717C7.80288 15.3327 7.8155 15.4889 7.8158 15.6451C7.8187 17.1207 7.82784 18.5964 7.81459 20.0719C7.81157 20.4088 7.9084 20.5061 8.19591 20.4936C8.71594 20.4709 9.2373 20.4877 9.75811 20.488C10.2938 20.4882 10.2938 20.4881 10.2947 21.0749C10.2968 22.4767 10.2982 23.8785 10.3015 25.2804C10.3029 25.8868 10.3047 25.8858 10.8212 25.8843C11.329 25.8829 11.8373 25.9003 12.3443 25.8773C12.6341 25.8641 12.7274 25.9689 12.7246 26.3025C12.7123 27.778 12.7372 29.254 12.7145 30.7291C12.7077 31.1681 12.8331 31.283 13.1996 31.2589C13.7056 31.2257 14.2163 31.2792 14.722 31.2426C15.0836 31.2164 15.1526 31.3709 15.1489 31.7459C15.1341 33.2361 15.1586 34.7267 15.1434 36.2168C15.1395 36.5937 15.2469 36.6937 15.5655 36.6813C16.389 36.6493 16.252 36.7726 16.2568 35.9139C16.2646 34.5416 16.26 33.1693 16.2605 31.7969C16.2606 31.6371 16.2605 31.4773 16.2605 31.2489C16.9119 31.2489 17.5311 31.2495 18.1504 31.2487C18.6603 31.248 18.6614 31.2473 18.6621 30.6753C18.6638 29.2587 18.6645 27.8421 18.6656 26.4255C18.6657 26.2659 18.6656 26.1062 18.6656 25.8838C19.3503 25.8838 19.998 25.8574 20.6429 25.8937C21.028 25.9154 21.1215 25.7669 21.1155 25.3487C21.0944 23.8882 21.1219 22.4268 21.0986 20.9665C21.0921 20.5554 21.2149 20.4631 21.5458 20.4844C22.0781 20.5186 22.6136 20.4889 23.1458 20.5242C23.4831 20.5466 23.5956 20.4383 23.5895 20.0356C23.5674 18.5752 23.5806 17.1141 23.5805 15.6532C23.5805 15.5076 23.5805 15.362 23.5805 15.1791C25.2047 15.1791 26.7973 15.1791 28.423 15.1791C28.423 16.9461 28.423 18.7069 28.423 20.515C27.6407 20.515 26.8646 20.515 26.0423 20.515C26.0423 22.3239 26.0423 24.087 26.0423 25.9138C25.4273 25.9138 24.858 25.9084 24.2888 25.9151C23.4637 25.9247 23.5909 25.7876 23.5781 26.7425Z" fill="#FF3600"/>
<path d="M54.6869 31.2312C54.5967 31.2395 54.5066 31.2552 54.4164 31.2552C48.1232 31.2541 41.8299 31.2518 35.4787 31.2263C35.3843 31.3096 35.3164 31.4161 35.3161 31.5228C35.3109 33.2274 35.3144 34.9319 35.3159 36.6365C33.7912 36.6365 32.2666 36.6365 30.6989 36.6365C30.6989 36.0353 30.6989 35.4526 30.7299 34.8014C30.7684 34.1594 30.7854 33.5857 30.7801 33.0123C30.7763 32.6057 30.7422 32.1995 30.7216 31.7932C30.7131 31.7062 30.697 31.6192 30.697 31.5322C30.6991 28.0726 30.7027 24.6129 30.7403 21.108C30.7585 20.9772 30.7424 20.8918 30.7264 20.8065C30.7193 20.7668 30.7123 20.727 30.7521 20.66C32.1792 20.6321 33.5595 20.6399 34.9395 20.6242C35.2304 20.6209 35.3203 20.718 35.3172 21.05C35.3033 22.5403 35.3196 24.0309 35.3053 25.5212C35.3017 25.8988 35.3985 26.0396 35.748 26.0388C40.5266 26.0285 45.3052 26.0288 50.0838 26.0387C50.4242 26.0394 50.555 25.9053 50.5496 25.5286C50.5393 24.8057 50.5516 24.0824 50.5416 23.3595C50.54 23.2457 50.4704 23.1332 50.4266 22.9812C50.4247 22.7327 50.4285 22.523 50.4591 22.2992C50.5063 21.8799 50.5532 21.4735 50.539 21.0699C50.5264 20.7138 50.6353 20.6207 50.9389 20.6241C52.3408 20.6401 53.7428 20.6309 55.1448 20.6307C55.1524 21.0768 55.16 21.523 55.1393 22.0284C55.1238 22.1913 55.1366 22.2949 55.1493 22.3985C55.1559 23.5454 55.166 24.6923 55.1681 25.8393C55.1712 27.5169 55.1725 29.1945 55.1607 30.872C55.1597 31.0002 55.0489 31.1273 54.9513 31.217C54.8378 31.1965 54.7623 31.2139 54.6869 31.2312Z" fill="white"/>
<path d="M84.688 15.178C85.7929 15.1667 86.8977 15.1543 88.0026 15.1447C88.4169 15.1411 88.8312 15.1441 89.3044 15.1441C89.3044 13.4051 89.3044 11.7008 89.3505 9.9568C90.0433 9.91698 90.6898 9.91675 91.3364 9.91671C92.213 9.91667 93.0897 9.91678 93.9663 9.91682C93.976 11.2215 93.9866 12.5263 93.9949 13.831C93.9973 14.2126 93.9932 14.5943 93.9675 15.0304C93.9805 15.1113 94.018 15.1378 94.0556 15.1643C96.4059 15.1574 98.7563 15.15 101.107 15.144C101.782 15.1422 102.457 15.1442 103.168 15.1969C103.203 16.7951 103.19 18.3411 103.211 19.8865C103.217 20.2891 103.1 20.3742 102.767 20.3725C99.9876 20.3584 97.2078 20.3645 94.4281 20.3647C94.3242 20.3647 94.2078 20.3354 94.1204 20.3791C94.052 20.4134 94.0194 20.5396 93.9709 20.625C93.9784 20.8449 93.9925 21.0647 93.9925 21.2846C93.9931 26.38 93.992 31.4754 93.9919 36.6095C93.9925 36.6482 93.9971 36.6421 93.9971 36.6421C92.4523 36.6421 90.9076 36.6421 89.3009 36.6421C89.3009 31.2987 89.3009 25.9589 89.2912 20.5429C89.1501 20.4327 89.0188 20.3698 88.8873 20.369C87.6391 20.3615 86.3908 20.3515 85.1429 20.3729C84.7951 20.3789 84.6723 20.2854 84.6784 19.8637C84.7012 18.3021 84.6878 16.74 84.688 15.178Z" fill="white"/>
<path d="M134.173 42.0319C134.197 41.9743 134.266 41.8767 134.31 41.8896C134.846 42.0469 134.77 41.6581 134.769 41.2806C134.763 36.7516 134.765 32.2226 134.765 27.6936C134.765 25.4955 134.759 23.2973 134.772 21.0993C134.774 20.7366 134.688 20.6183 134.359 20.6234C133.057 20.6436 131.755 20.6401 130.454 20.6252C130.168 20.6219 130.069 20.7083 130.072 21.0461C130.083 22.5339 130.067 24.0219 130.071 25.5097C130.073 25.9363 129.905 26.0414 129.545 26.0407C123.414 26.0292 117.283 26.0323 111.152 26.0323C110.627 26.0323 110.627 26.0326 110.627 26.6303C110.627 28.1351 110.627 29.6398 110.606 31.2023C110.562 31.288 110.538 31.3158 110.486 31.3444C110.332 31.3202 110.208 31.2953 110.083 31.2703C110.211 31.2525 110.339 31.2347 110.519 31.2095C110.519 29.4555 110.519 27.697 110.519 25.9075C117.011 25.9075 123.45 25.9075 129.919 25.9075C129.919 24.1122 129.919 22.3482 129.919 20.536C123.486 20.536 117.037 20.536 110.555 20.536C110.555 18.7275 110.555 16.9666 110.555 15.1724C117.006 15.1724 123.456 15.1724 129.953 15.1724C129.953 16.9328 129.953 18.6953 129.953 20.4979C131.606 20.4979 133.212 20.4979 134.85 20.4979C134.85 27.6996 134.85 34.8604 134.85 42.0433C134.621 42.0433 134.414 42.0433 134.173 42.0319Z" fill="white"/>
<path d="M55.1462 20.5952C53.7429 20.6309 52.3408 20.6401 50.939 20.6241C50.6354 20.6207 50.5265 20.7138 50.539 21.0699C50.5532 21.4735 50.5064 21.8799 50.4525 22.2583C50.419 21.6748 50.419 21.1182 50.419 20.5393C45.4062 20.5393 40.4287 20.5393 35.43 20.5393C35.43 22.3242 35.43 24.0844 35.43 25.8651C40.4295 25.8651 45.4057 25.8651 50.4323 25.8651C50.4323 24.8997 50.4323 23.9599 50.4323 23.0201C50.4705 23.1332 50.5401 23.2457 50.5417 23.3595C50.5517 24.0824 50.5394 24.8057 50.5497 25.5286C50.5551 25.9053 50.4242 26.0394 50.0839 26.0387C45.3053 26.0288 40.5267 26.0285 35.7481 26.0388C35.3986 26.0396 35.3018 25.8988 35.3054 25.5212C35.3196 24.0309 35.3033 22.5403 35.3173 21.05C35.3204 20.718 35.2304 20.6209 34.9396 20.6242C33.5595 20.6399 32.1793 20.6321 30.7642 20.6321C30.8591 20.5881 30.9887 20.5078 31.1187 20.507C32.5239 20.4979 33.9292 20.5013 35.3846 20.5013C35.3846 18.7223 35.3846 16.9631 35.3846 15.1719C40.4137 15.1719 45.3927 15.1719 50.4172 15.1719C50.4172 16.9286 50.4172 18.6903 50.4172 20.5099C50.5992 20.5099 50.7367 20.5105 50.8742 20.5098C52.1629 20.5039 53.4515 20.4957 54.7401 20.4948C54.8759 20.4947 55.0118 20.537 55.1462 20.5952Z" fill="white"/>
<path d="M78.5488 20.6301C78.4455 20.5921 78.3422 20.5209 78.2389 20.5207C73.4741 20.5147 68.7093 20.5147 63.9445 20.5149C63.8825 20.5149 63.8205 20.5246 63.7374 20.5316C63.7374 25.9075 63.7374 31.2573 63.7374 36.6693C67.9891 36.6693 72.2409 36.6693 76.5173 36.7131C76.3929 36.7822 76.244 36.8295 76.0951 36.8297C72.3637 36.8339 68.6323 36.833 64.9009 36.8332C63.8284 36.8332 63.8283 36.8334 63.8284 38.0487C63.8285 39.3715 63.8288 40.6943 63.829 42.0171C63.7857 41.8907 63.7054 41.7646 63.7047 41.6379C63.6971 40.1633 63.7014 38.6886 63.7026 37.2139C63.7027 37.0538 63.7026 36.8937 63.7026 36.681C62.1332 36.681 60.5936 36.681 59.0325 36.681C59.0325 31.2796 59.0325 25.9321 59.0325 20.5262C60.5663 20.5262 62.1049 20.5262 63.7024 20.5262C63.7024 20.3128 63.7023 20.1571 63.7024 20.0014C63.7028 18.5119 63.7016 17.0225 63.7063 15.533C63.7067 15.4103 63.7468 15.2878 63.7993 15.2092C63.8295 16.8019 63.8384 18.3508 63.8212 19.8993C63.8171 20.2672 63.9127 20.3725 64.2375 20.3717C68.8317 20.3608 73.4259 20.3611 78.0201 20.3714C78.3362 20.3722 78.4472 20.285 78.443 19.907C78.4258 18.329 78.4363 16.7507 78.4366 15.1724C78.4695 15.3103 78.5303 15.448 78.5308 15.586C78.5359 17.0318 78.5313 18.4777 78.5295 19.9235C78.5292 20.0978 78.5294 20.2721 78.5294 20.4851C80.0786 20.4851 81.5946 20.4851 83.1424 20.4851C83.1424 21.68 83.1424 22.8365 83.1424 23.9937C83.122 24.011 83.1023 24.0423 83.0826 24.0424C81.6249 24.0486 80.1673 24.0533 78.7096 24.0528C78.6541 24.0528 78.5985 24.0017 78.5815 23.9401C79.9719 23.9059 81.3238 23.8976 82.6756 23.9129C82.9656 23.9162 83.0608 23.8194 83.053 23.4873C83.0342 22.6923 83.0325 21.8959 83.0535 21.1011C83.0629 20.7419 82.9761 20.6172 82.6433 20.622C81.2786 20.6419 79.9136 20.6302 78.5488 20.6301Z" fill="white"/>
<path d="M35.4216 41.8794C35.4161 40.2539 35.4106 38.6285 35.4446 36.9556C35.6625 36.8832 35.8409 36.8366 36.0192 36.8365C40.5826 36.8325 45.1459 36.8347 49.7093 36.8274C49.8586 36.8272 50.0077 36.7401 50.157 36.6934C50.1918 36.6868 50.2267 36.6801 50.2865 36.7238C50.3114 38.5213 50.3114 40.2682 50.3113 42.0152C50.2083 42.0238 50.1053 42.0401 50.0022 42.0401C45.2076 42.0411 40.4129 42.0408 35.5795 42.0071C35.501 41.9423 35.4613 41.9108 35.4216 41.8794Z" fill="white"/>
<path d="M63.8644 42.0277C63.8288 40.6943 63.8285 39.3715 63.8284 38.0487C63.8283 36.8334 63.8284 36.8332 64.9009 36.8332C68.6323 36.833 72.3637 36.8339 76.0951 36.8297C76.244 36.8295 76.3929 36.7822 76.5526 36.7251C76.6466 36.6864 76.7299 36.6794 76.854 36.7145C77.2014 36.7363 77.5078 36.7161 77.8142 36.6959C78.0017 36.6876 78.1892 36.6792 78.4069 36.7231C78.4365 38.5221 78.436 40.2689 78.4354 42.0157C78.3454 42.0238 78.2553 42.039 78.1652 42.039C73.4101 42.0396 68.655 42.0389 63.8644 42.0277Z" fill="white"/>
<path d="M78.4017 15.159C78.4362 16.7507 78.4257 18.329 78.443 19.907C78.4471 20.285 78.3362 20.3722 78.0201 20.3714C73.4259 20.3611 68.8317 20.3608 64.2375 20.3717C63.9127 20.3725 63.8171 20.2672 63.8212 19.8993C63.8383 18.3508 63.8294 16.8019 63.8296 15.2139C63.9061 15.1654 63.9831 15.1483 64.0601 15.1482C68.829 15.1464 73.598 15.1461 78.4017 15.159Z" fill="white"/>
<path d="M93.99 36.6508C94.7935 36.661 95.5996 36.6747 96.4058 36.6751C98.5657 36.6764 100.726 36.6721 102.885 36.67C103.013 36.6699 103.141 36.67 103.295 36.67C103.295 38.47 103.295 40.2318 103.295 42.0191C100.201 42.0191 97.1237 42.0191 93.988 42.0191C93.988 40.2524 93.988 38.4902 93.9926 36.6851C93.9972 36.6421 93.9926 36.6482 93.99 36.6508Z" fill="white"/>
<path d="M110.047 31.2592C110.208 31.2953 110.332 31.3202 110.496 31.3817C110.529 31.5997 110.523 31.7811 110.488 31.9747C110.479 32.3335 110.497 32.6803 110.524 33.0672C110.525 34.2609 110.517 35.4145 110.474 36.5673C109.364 36.5665 108.288 36.5639 107.213 36.5696C107.076 36.5703 106.939 36.6143 106.802 36.6383C106.537 36.6455 106.271 36.6526 105.972 36.6055C105.939 34.7973 105.939 33.0433 105.938 31.2893C106.765 31.2753 107.592 31.258 108.419 31.2485C108.95 31.2424 109.481 31.2477 110.047 31.2592Z" fill="white"/>
<path d="M78.5392 20.6704C79.9135 20.6302 81.2785 20.6419 82.6431 20.622C82.976 20.6172 83.0628 20.7419 83.0533 21.1011C83.0324 21.8959 83.0341 22.6923 83.0529 23.4873C83.0607 23.8194 82.9654 23.9162 82.6754 23.9129C81.3237 23.8976 79.9718 23.9059 78.5856 23.9061C78.5441 22.8411 78.5369 21.7759 78.5392 20.6704Z" fill="white"/>
<path d="M78.6726 33.5032C78.9644 33.4925 79.2562 33.4818 79.5977 33.5007C79.7103 33.5187 79.7733 33.507 79.8363 33.4953C80.2347 33.4871 80.6331 33.4789 81.0929 33.5039C81.6738 33.5442 82.1936 33.5643 82.7129 33.5532C82.965 33.5477 83.0582 33.6384 83.0516 33.9313C83.0367 34.5942 83.0409 35.258 83.0522 35.9211C83.0544 36.0493 83.124 36.1759 83.1626 36.3033C83.1688 36.3426 83.1751 36.382 83.1418 36.4578C82.95 36.5184 82.7978 36.5627 82.6454 36.5636C81.2812 36.5717 79.9171 36.5721 78.5529 36.5748C78.5449 35.6253 78.5369 34.6758 78.5591 33.6827C78.617 33.5937 78.6448 33.5485 78.6726 33.5032Z" fill="white"/>
<path d="M106.831 36.6516C106.939 36.6143 107.076 36.5703 107.213 36.5696C108.288 36.5639 109.364 36.5665 110.498 36.5981C110.697 36.6435 110.838 36.6692 110.978 36.6691C117.125 36.6687 123.271 36.6658 129.418 36.6644C129.56 36.6644 129.702 36.679 129.845 36.6868C129.697 36.7356 129.549 36.8269 129.401 36.8271C123.346 36.8343 117.292 36.8333 111.237 36.8333C111.146 36.8333 111.054 36.8429 110.964 36.8316C110.715 36.8005 110.62 36.9059 110.622 37.2027C110.632 38.6488 110.632 40.095 110.622 41.541C110.62 41.8434 110.734 41.9183 110.976 41.9095C111.216 41.9009 111.457 41.9355 111.709 41.9811C111.335 42.0111 110.949 42.0111 110.534 42.0111C110.534 40.2478 110.534 38.4981 110.534 36.665C109.291 36.665 108.075 36.665 106.831 36.6516Z" fill="white"/>
<path d="M50.1215 36.6827C50.0078 36.7401 49.8586 36.8272 49.7093 36.8274C45.146 36.8347 40.5826 36.8325 36.0193 36.8365C35.8409 36.8366 35.6626 36.8832 35.4543 36.9155C35.4018 36.8424 35.3793 36.762 35.3363 36.6591C35.3144 34.9319 35.3109 33.2274 35.3161 31.5228C35.3164 31.4161 35.3843 31.3096 35.442 31.2208C35.4487 31.2792 35.4216 31.3198 35.4216 31.3605C35.4195 33.112 35.4197 34.8635 35.4197 36.6719C40.3188 36.6719 45.2024 36.6719 50.1215 36.6827Z" fill="white"/>
<path d="M93.9956 20.5974C94.0195 20.5396 94.052 20.4134 94.1205 20.3791C94.2079 20.3354 94.3242 20.3647 94.4281 20.3647C97.2078 20.3645 99.9876 20.3584 102.767 20.3725C103.1 20.3742 103.217 20.2891 103.212 19.8865C103.19 18.3411 103.203 16.7951 103.203 15.2098C103.24 15.2459 103.311 15.3215 103.311 15.3973C103.316 17.0472 103.313 18.6971 103.31 20.347C103.31 20.3889 103.291 20.4307 103.271 20.5192C103.125 20.5192 102.974 20.5193 102.823 20.5192C100.015 20.5177 97.2073 20.5154 94.3996 20.517C94.2732 20.5171 94.1467 20.5514 93.9956 20.5974Z" fill="white"/>
<path d="M78.5345 36.5952C79.9171 36.5721 81.2813 36.5717 82.6454 36.5636C82.7978 36.5627 82.95 36.5184 83.1315 36.486C83.0506 36.5406 82.941 36.6569 82.8304 36.6581C81.5576 36.6718 80.2847 36.668 79.0118 36.6689C78.8715 36.669 78.7313 36.6689 78.5339 36.6689C78.5339 36.8627 78.5339 37.0183 78.5339 37.1739C78.5339 38.646 78.535 40.118 78.532 41.5901C78.5317 41.7335 78.5059 41.8768 78.4637 42.0179C78.436 40.2689 78.4366 38.5221 78.4403 36.7366C78.4677 36.6705 78.4919 36.643 78.5345 36.5952Z" fill="white"/>
<path d="M84.6578 15.1735C84.688 16.74 84.7014 18.3022 84.6786 19.8637C84.6725 20.2854 84.7953 20.3789 85.1431 20.3729C86.391 20.3515 87.6393 20.3615 88.8875 20.369C89.019 20.3698 89.1503 20.4327 89.2902 20.501C87.8929 20.5288 86.4871 20.5223 85.0812 20.516C84.9275 20.5153 84.7738 20.5159 84.6034 20.5159C84.586 20.3931 84.5641 20.3099 84.5639 20.2267C84.5607 18.633 84.5589 17.0393 84.5617 15.4456C84.5619 15.3533 84.6046 15.2612 84.6578 15.1735Z" fill="white"/>
<path d="M105.909 31.2873C105.939 33.0433 105.939 34.7973 105.938 36.5911C105.902 36.556 105.834 36.4813 105.834 36.4062C105.827 34.7517 105.827 33.0971 105.83 31.4426C105.83 31.3901 105.863 31.3377 105.909 31.2873Z" fill="white"/>
<path d="M50.3401 42.0182C50.3113 40.2682 50.3113 38.5213 50.3113 36.7354C50.352 36.7839 50.4281 36.8712 50.4283 36.9587C50.4325 38.5933 50.4281 40.2279 50.4223 41.8626C50.4221 41.9155 50.3875 41.9683 50.3401 42.0182Z" fill="white"/>
<path d="M93.9688 9.88141C93.0896 9.91678 92.213 9.91667 91.3364 9.91671C90.6898 9.91675 90.0433 9.91698 89.3621 9.91721C89.4038 9.86967 89.4799 9.78102 89.5565 9.78047C90.9717 9.7703 92.3869 9.76976 93.8022 9.77206C93.8586 9.77215 93.9149 9.82026 93.9688 9.88141Z" fill="white"/>
<path d="M83.1726 36.2631C83.1239 36.1759 83.0543 36.0493 83.0521 35.9211C83.0409 35.258 83.0366 34.5942 83.0515 33.9313C83.0581 33.6384 82.965 33.5477 82.7128 33.5532C82.1935 33.5643 81.6737 33.5442 81.1284 33.5164C81.7852 33.4958 82.4677 33.4958 83.1828 33.4958C83.1828 34.4082 83.1828 35.3156 83.1726 36.2631Z" fill="white"/>
<path d="M129.926 37.5828C129.974 37.6268 130.07 37.7117 130.071 37.7976C130.08 38.9915 130.076 40.1855 130.073 41.3794C130.073 41.4184 130.042 41.4572 130 41.5122C129.964 40.4025 129.954 39.2766 129.942 38.1508C129.941 37.9752 129.934 37.7997 129.926 37.5828Z" fill="white"/>
<path d="M30.7086 31.8252C30.7421 32.1995 30.7762 32.6057 30.78 33.0123C30.7854 33.5857 30.7683 34.1594 30.741 34.7611C30.7127 33.812 30.7042 32.8347 30.7086 31.8252Z" fill="white"/>
<path d="M128.383 39.4332C128.362 38.7554 128.362 38.7554 128.887 38.6316C128.766 38.0662 129.242 38.1398 129.501 37.9191C129.628 38.4426 129.174 38.107 129.028 38.3348C129.017 38.4416 129.001 38.5976 128.981 38.7996C128.526 38.7029 128.452 39.0548 128.383 39.4332Z" fill="white"/>
<path d="M127.345 40.4266C127.216 40.0107 127.242 39.9744 127.734 39.9042C127.796 39.7471 127.858 39.5902 127.94 39.4496C127.934 39.6506 127.907 39.8352 127.88 40.02C127.703 40.1487 127.322 39.9043 127.345 40.4266Z" fill="white"/>
<path d="M77.7795 36.6832C77.5077 36.7161 77.2012 36.7363 76.884 36.7253C77.1638 36.6862 77.4543 36.6784 77.7795 36.6832Z" fill="white"/>
<path d="M126.263 41.4188C126.289 41.0904 126.526 41.3341 126.697 41.2607C126.585 41.3098 126.44 41.3583 126.263 41.4188Z" fill="white"/>
<path d="M125.733 42.0286C125.853 41.9708 126.003 41.9244 126.184 41.8781C126.064 41.9321 125.914 41.9861 125.733 42.0286Z" fill="white"/>
<path d="M112.687 42.0229C112.806 41.9922 112.957 41.9737 113.117 41.9828C112.991 42.0186 112.855 42.0269 112.687 42.0229Z" fill="white"/>
<path d="M55.1594 22.3755C55.1365 22.2949 55.1237 22.1913 55.13 22.0688C55.1559 22.1508 55.1628 22.2516 55.1594 22.3755Z" fill="white"/>
<path d="M129.637 37.5156C129.684 37.4888 129.759 37.4727 129.84 37.4824C129.785 37.5142 129.725 37.5202 129.637 37.5156Z" fill="white"/>
<path d="M79.8207 33.4818C79.7733 33.507 79.7103 33.5187 79.6328 33.5131C79.6806 33.4867 79.7428 33.4775 79.8207 33.4818Z" fill="white"/>
<path d="M54.7153 31.2433C54.7624 31.2139 54.8379 31.1965 54.918 31.2061C54.863 31.2405 54.8034 31.248 54.7153 31.2433Z" fill="white"/>
<path d="M30.7146 20.8386C30.7424 20.8918 30.7584 20.9772 30.7511 21.0682C30.7195 21.0061 30.7112 20.9385 30.7146 20.8386Z" fill="white"/>
<path d="M78.6491 33.4929C78.6448 33.5485 78.617 33.5937 78.5698 33.6429C78.5755 33.592 78.6005 33.5373 78.6491 33.4929Z" fill="white"/>
<path d="M126.749 41.0691C126.725 41.0338 126.714 40.9774 126.721 40.9125C126.747 40.952 126.754 41 126.749 41.0691Z" fill="white"/>
<path d="M35.4143 41.9053C35.4612 41.9108 35.501 41.9423 35.5442 41.9955C35.5008 41.9887 35.4539 41.96 35.4143 41.9053Z" fill="white"/>
<path d="M94.0449 15.1436C94.0181 15.1378 93.9805 15.1113 93.958 15.071C93.9934 15.079 94.0138 15.101 94.0449 15.1436Z" fill="white"/>
<path d="M129.96 41.9022C130.006 41.9103 130.04 41.9425 130.077 41.995C130.036 41.9856 129.992 41.956 129.96 41.9022Z" fill="white"/>
<path d="M129.997 36.5544C129.962 35.0603 129.952 33.5506 129.954 32.0012C130.003 32.0447 130.072 32.1278 130.073 32.2113C130.079 33.6011 130.078 34.9909 130.075 36.3807C130.074 36.4335 130.041 36.4862 129.997 36.5544Z" fill="white"/>
<path d="M110.489 31.9747C110.522 32.2911 110.529 32.6196 110.525 32.9876C110.497 32.6803 110.479 32.3335 110.489 31.9747Z" fill="white"/>
</svg>
