<svg width="57" height="57" viewBox="0 0 57 57" fill="none" xmlns="http://www.w3.org/2000/svg">
<path fill-rule="evenodd" clip-rule="evenodd" d="M41.4397 24.723C40.146 24.723 39.4152 24.9727 38.9955 25.5581C38.5571 26.1694 38.469 27.1345 38.469 28.4936C38.469 31.1618 38.8818 32.2772 41.4397 32.2772C41.7469 32.2772 42.7971 32.2713 43.4101 32.1965C43.6487 32.1569 43.7555 31.9743 43.7555 31.8108V31.5161C43.7555 31.2868 43.5823 31.1138 43.3523 31.1138H41.4396C39.9964 31.1138 39.7362 30.7736 39.6992 28.8396V28.2135C39.7115 26.2343 39.9717 25.8863 41.4397 25.8863C42.7933 25.8863 43.0529 26.1952 43.0979 27.9376H40.947V29.1139H43.776C44.3332 29.1139 44.3332 28.7242 44.3332 28.5962V28.2207C44.2928 25.5075 43.6437 24.723 41.4397 24.723V24.723ZM37.7147 24.8267L37.6839 24.8185C37.4205 24.7632 36.7005 24.723 36.3435 24.723C35.0803 24.723 34.4127 25.2519 34.4127 26.2525V31.8236C34.4127 32.0529 34.5731 32.2131 34.8031 32.2131H35.2524C35.4824 32.2131 35.6429 32.053 35.6429 31.8236V26.3548C35.6429 26.1078 35.7053 25.8863 36.4591 25.8863L37.5752 25.8854C37.6845 25.8984 37.7887 25.8682 37.8691 25.8002C37.9567 25.7263 38.0049 25.6185 38.0049 25.4968V25.215C38.0049 25.03 37.8991 24.8885 37.7147 24.8267V24.8267ZM32.3198 24.8127H31.8705C31.6406 24.8127 31.48 24.9728 31.48 25.2022V31.1139H29.6113C28.4554 31.1139 27.9864 31.0404 27.9864 29.1981V25.2022C27.9864 24.9729 27.8258 24.8127 27.5959 24.8127H27.1593C26.9294 24.8127 26.7561 24.9801 26.7561 25.2022V29.1981C26.7561 31.8164 27.7058 32.2772 29.7011 32.2772C30.4189 32.2772 31.402 32.2772 32.3395 32.1452L32.3612 32.1408C32.5927 32.083 32.7102 31.9504 32.7102 31.7468V25.2022C32.7102 24.9729 32.5496 24.8127 32.3198 24.8127" fill="#272727"/>
<path fill-rule="evenodd" clip-rule="evenodd" d="M25.37 24.9957C25.3124 24.873 25.1887 24.7999 25.0392 24.7999H24.4616C24.2938 24.7999 24.1684 24.8674 24.1024 24.9891L23.2463 26.2398L23.9958 27.2647L25.3042 25.3878C25.4478 25.2134 25.3981 25.0554 25.37 24.9957" fill="#74BB11"/>
<path fill-rule="evenodd" clip-rule="evenodd" d="M20.857 24.9748L20.8563 24.9737C20.7258 24.7997 20.5521 24.7997 20.495 24.7997H19.9301C19.7853 24.7997 19.6668 24.8663 19.6049 24.9821C19.5412 25.1007 19.5547 25.2431 19.6429 25.3752L21.7357 28.2764L19.3291 31.633C19.245 31.7593 19.2332 31.8996 19.2967 32.0181C19.359 32.1339 19.4776 32.2002 19.6221 32.2002H20.1996C20.3481 32.2002 20.4787 32.1231 20.544 32.0017L23.2378 28.2898L20.857 24.9748Z" fill="#009CD9"/>
<path fill-rule="evenodd" clip-rule="evenodd" d="M25.6574 31.6623L23.9783 29.358L23.2397 30.3762L24.5676 32.1484L24.6021 32.1635C24.6548 32.1872 24.7119 32.1996 24.7696 32.2001H25.3344C25.4708 32.2001 25.5866 32.1395 25.6522 32.0337C25.7194 31.9251 25.7213 31.7899 25.6574 31.6623" fill="#EB2084"/>
<path fill-rule="evenodd" clip-rule="evenodd" d="M17.108 29.0625V31.0194C16.5362 31.1071 15.6646 31.1266 15.3675 31.1266C14.0534 31.1266 13.9094 30.7675 13.9094 30.005C13.9094 29.2914 14.1765 29.0624 15.0081 29.0624L17.108 29.0625ZM15.3033 24.7228C14.8973 24.7228 14.3436 24.7334 13.6547 24.8163L13.6235 24.8231C13.4228 24.8802 13.3212 25.0121 13.3212 25.2149V25.4967C13.3212 25.7369 13.4707 25.8862 13.7116 25.8862H15.3034C16.5851 25.8862 17.108 26.2335 17.108 27.0847V27.912H15.0081C13.3669 27.912 12.6665 28.5379 12.6665 30.0049C12.6665 31.64 13.3914 32.2771 15.252 32.2771C16.0057 32.2771 17.393 32.2185 17.9057 32.0622C18.3381 31.9422 18.3381 31.6119 18.3381 31.5034V27.008C18.3381 25.4704 17.3454 24.7228 15.3034 24.7228H15.3033Z" fill="#272727"/>
</svg>
