<svg width="57" height="57" viewBox="0 0 57 57" fill="none" xmlns="http://www.w3.org/2000/svg">
<path d="M13.9861 14.382H43.0138V42.618H13.9861V14.382Z" fill="#2E001E"/>
<path d="M12.6665 13.0625V43.9375H44.3332V13.0625H12.6665ZM13.9859 14.3819H43.0137V42.618H13.9859V14.3819Z" fill="#FF2BC2"/>
<path d="M35.6645 26.0326C35.4666 25.9402 35.2159 25.9006 34.8992 25.9006C33.2367 25.9006 32.1284 27.1805 32.1284 29.3048C32.1284 31.7326 33.2631 32.709 34.7409 32.709C35.0576 32.709 35.4006 32.6694 35.6513 32.5638V26.0326H35.6645ZM29.7534 29.4104C29.7534 26.3361 31.7326 23.9347 34.9784 23.9347C35.2555 23.9347 35.4006 23.9347 35.6645 23.9611V20.5305C35.6645 20.4513 35.7305 20.3986 35.7965 20.3986H37.9208C38.0263 20.3986 38.0527 20.4382 38.0527 20.5041V32.5638C38.0527 32.9201 38.0527 33.3687 38.1187 33.8569C38.1187 33.9492 38.1187 33.9624 38.0395 34.002C36.9312 34.5298 35.7701 34.7673 34.6617 34.7673C31.7986 34.7673 29.7534 32.9992 29.7534 29.4104V29.4104ZM25.2541 27.2729L28.9486 34.4374C29.0145 34.543 28.9749 34.6485 28.8694 34.6485H26.5736C26.4284 34.6485 26.3624 34.609 26.2965 34.477C25.452 32.7353 24.5944 30.9277 23.7104 29.0541H23.684C22.8923 30.8222 22.0215 32.7485 21.177 34.4902C21.1111 34.5958 21.0451 34.6353 20.9395 34.6353H18.7493C18.6173 34.6353 18.6041 34.5298 18.6701 34.4506L22.2854 27.4972L18.7888 20.5833C18.7097 20.4777 18.7888 20.3854 18.8812 20.3854H21.1506C21.2826 20.3854 21.3486 20.4118 21.3881 20.5305C22.2194 22.2854 23.0638 24.0138 23.8555 25.7819H23.8819C24.6472 24.0402 25.4916 22.2854 26.2965 20.5569C26.3624 20.4513 26.402 20.3854 26.534 20.3854H28.6583C28.7638 20.3854 28.8034 20.4645 28.7374 20.5833L25.2541 27.2729V27.2729Z" fill="#FF2BC2"/>
</svg>
