<svg width="57" height="57" viewBox="0 0 57 57" fill="none" xmlns="http://www.w3.org/2000/svg">
<path d="M19.7665 37.715L16.7014 38.4143V18.5641L19.7665 19.2648V37.715Z" fill="#F68536"/>
<path d="M23.5908 38.8866L19.7666 39.9734V17.0323L23.5908 18.1177V38.8866V38.8866ZM28.4965 40.0904L23.5908 41.8857V15.1199L28.4965 16.9144V40.0904ZM41.6135 37.7749L28.4965 44.3334V12.6667L41.6135 19.2252V37.7749Z" fill="#F68536"/>
<path d="M25.8818 13.9742L28.4965 12.6667V44.3334L25.8818 43.0262V13.9742V13.9742ZM21.5667 16.1315L23.5908 15.1195V41.8805L21.5667 40.8685V16.1315ZM18.1542 17.838L19.7666 17.0318V39.9682L18.1542 39.1615V17.838ZM16.7015 18.5642L15.3865 19.2217V37.7787L16.7015 38.4359V18.5642Z" fill="#9D5025"/>
</svg>
