<svg width="57" height="57" viewBox="0 0 57 57" fill="none" xmlns="http://www.w3.org/2000/svg">
<path d="M12.6665 12.6667H44.3332V44.3334H12.6665V12.6667Z" fill="#017ACB"/>
<path d="M27.8715 24.3932H29.3906V27.0156H25.2838V38.6828L25.1749 38.7125C25.0265 38.7521 23.0721 38.7521 22.6515 38.7075L22.315 38.6779V27.0156H18.2083V24.3932L19.5096 24.3784C20.2221 24.3685 22.0528 24.3685 23.5768 24.3784C25.1007 24.3883 27.0304 24.3932 27.8715 24.3932V24.3932ZM39.4645 37.4458C38.8609 38.0841 38.2127 38.4404 37.1341 38.7323C36.664 38.8609 36.5848 38.8659 35.526 38.8609C34.4671 38.856 34.383 38.856 33.8684 38.7224C32.5374 38.381 31.4637 37.713 30.7315 36.768C30.5236 36.5008 30.1822 35.9466 30.1822 35.8773C30.1822 35.8575 30.2317 35.813 30.296 35.7833C30.3604 35.7536 30.494 35.6695 30.6028 35.6052C30.7117 35.5409 30.9096 35.4221 31.0432 35.3529C31.1768 35.2836 31.5627 35.056 31.8992 34.8531C32.2356 34.6503 32.5424 34.487 32.577 34.487C32.6117 34.487 32.676 34.5562 32.7255 34.6404C33.0223 35.1401 33.715 35.7784 34.2049 35.9961C34.5067 36.1247 35.1747 36.2682 35.4963 36.2682C35.7932 36.2682 36.3374 36.1396 36.6294 36.006C36.9411 35.8625 37.0994 35.719 37.2875 35.432C37.4161 35.2292 37.4309 35.1747 37.426 34.7888C37.426 34.4325 37.4062 34.3336 37.3072 34.1703C37.0302 33.7151 36.6541 33.4776 35.1302 32.8047C33.5567 32.107 32.8492 31.6914 32.2752 31.1323C31.8497 30.7167 31.7656 30.6029 31.4984 30.0833C31.152 29.4154 31.1075 29.1977 31.1025 28.2031C31.0976 27.5055 31.1124 27.2779 31.1867 27.0404C31.2906 26.6841 31.627 25.9963 31.7804 25.8232C32.0971 25.4521 32.2109 25.3383 32.4335 25.1552C33.1065 24.601 34.1554 24.2349 35.1598 24.2003C35.2736 24.2003 35.6497 24.22 36.001 24.2448C37.0104 24.3289 37.6981 24.5763 38.3612 25.1057C38.8609 25.5016 39.6179 26.4318 39.5437 26.5555C39.4942 26.6297 37.52 27.9458 37.3914 27.9854C37.3122 28.0102 37.2578 27.9805 37.1489 27.8518C36.476 27.0453 36.2039 26.8721 35.5507 26.8325C35.0856 26.8029 34.8382 26.8573 34.5265 27.0651C34.1999 27.2828 34.0416 27.6143 34.0416 28.0745C34.0466 28.7474 34.3039 29.0641 35.2539 29.5341C35.8674 29.8359 36.3919 30.0833 36.4315 30.0833C36.4908 30.0833 37.7625 30.7167 38.094 30.9146C39.6377 31.82 40.2661 32.7503 40.4294 34.3534C40.5481 35.5607 40.2067 36.6641 39.4645 37.4458V37.4458Z" fill="white"/>
</svg>
