<svg width="56" height="57" viewBox="0 0 56 57" fill="none" xmlns="http://www.w3.org/2000/svg">
<path d="M36.1558 38.2131L33.0415 28.4556L41.1941 22.4268H31.1165L28.0018 12.6694L28.0008 12.6668H38.08L41.1954 22.4256L41.1956 22.4254L41.1982 22.424C43.0074 28.0854 41.144 34.5246 36.1558 38.213V38.2131ZM19.8469 38.2131L19.8444 38.215L27.9992 44.2454L36.1558 38.2133L28.0018 32.1827L19.847 38.2131H19.8469ZM14.8068 22.4242C12.9022 28.3921 15.113 34.7157 19.8454 38.2143L19.8462 38.2112L22.9611 28.4542L14.8102 22.4265H24.8854L28.0002 12.6693L28.0008 12.6667H17.9212L14.8067 22.4242H14.8068Z" fill="#EB5424"/>
</svg>
