<svg width="56" height="57" viewBox="0 0 56 57" fill="none" xmlns="http://www.w3.org/2000/svg">
<path d="M27.8878 12.749C19.9899 12.749 20.483 16.2352 20.483 16.2352L20.4918 19.847H28.0286V20.9313H17.4982C17.4982 20.9313 12.4443 20.3479 12.4443 28.4592C12.4443 36.5707 16.8555 36.283 16.8555 36.283H19.4881V32.519C19.4881 32.519 19.3462 28.0291 23.8288 28.0291H31.3041C31.3041 28.0291 35.5039 28.0981 35.5039 23.8976V16.9523C35.5039 16.9523 36.1417 12.749 27.8878 12.749ZM23.732 15.1779C23.9101 15.1777 24.0865 15.2133 24.251 15.2826C24.4156 15.3519 24.5651 15.4535 24.6911 15.5817C24.817 15.7099 24.9169 15.8621 24.985 16.0296C25.0531 16.1971 25.088 16.3767 25.0879 16.558C25.088 16.7392 25.0531 16.9188 24.985 17.0863C24.9169 17.2538 24.817 17.406 24.6911 17.5342C24.5651 17.6624 24.4156 17.764 24.251 17.8333C24.0865 17.9026 23.9101 17.9382 23.732 17.9381C23.5539 17.9382 23.3775 17.9026 23.2129 17.8333C23.0483 17.764 22.8988 17.6624 22.7729 17.5342C22.6469 17.406 22.5471 17.2538 22.479 17.0863C22.4109 16.9188 22.3759 16.7392 22.3761 16.558C22.3759 16.3767 22.4109 16.1971 22.479 16.0296C22.5471 15.8621 22.6469 15.7099 22.7729 15.5817C22.8988 15.4535 23.0483 15.3519 23.2129 15.2826C23.3775 15.2133 23.5539 15.1777 23.732 15.1779V15.1779Z" fill="url(#paint0_linear_27_5653)"/>
<path d="M28.1122 44.251C36.0102 44.251 35.517 40.7648 35.517 40.7648L35.5083 37.1532H27.9713V36.0688H38.5017C38.5017 36.0688 43.5556 36.6522 43.5556 28.5407C43.5556 20.4293 39.1444 20.717 39.1444 20.717H36.5118V24.4809C36.5118 24.4809 36.6538 28.9708 32.1711 28.9708H24.6959C24.6959 28.9708 20.496 28.9018 20.496 33.1024V40.0479C20.496 40.0479 19.8583 44.251 28.1121 44.251H28.1122ZM32.2681 41.8224C32.09 41.8226 31.9136 41.787 31.749 41.7177C31.5844 41.6484 31.4349 41.5468 31.3089 41.4186C31.183 41.2904 31.0831 41.1382 31.0151 40.9707C30.947 40.8031 30.912 40.6236 30.9122 40.4423C30.912 40.261 30.9469 40.0815 31.015 39.914C31.0831 39.7464 31.183 39.5942 31.3089 39.466C31.4348 39.3378 31.5844 39.2362 31.749 39.1668C31.9135 39.0975 32.0899 39.062 32.2681 39.0621C32.4462 39.062 32.6225 39.0975 32.7871 39.1668C32.9517 39.2361 33.1012 39.3378 33.2272 39.466C33.3531 39.5942 33.453 39.7464 33.521 39.9139C33.5891 40.0814 33.6241 40.2609 33.6239 40.4422C33.6241 40.6235 33.5891 40.803 33.521 40.9705C33.453 41.138 33.3531 41.2903 33.2272 41.4184C33.1012 41.5466 32.9517 41.6483 32.7871 41.7176C32.6225 41.7869 32.4462 41.8225 32.2681 41.8223V41.8224Z" fill="url(#paint1_linear_27_5653)"/>
<defs>
<linearGradient id="paint0_linear_27_5653" x1="15.4341" y1="15.5824" x2="31.1219" y2="30.8412" gradientUnits="userSpaceOnUse">
<stop stop-color="#387EB8"/>
<stop offset="1" stop-color="#366994"/>
</linearGradient>
<linearGradient id="paint1_linear_27_5653" x1="24.8976" y1="25.559" x2="41.7308" y2="41.1928" gradientUnits="userSpaceOnUse">
<stop stop-color="#FFE052"/>
<stop offset="1" stop-color="#FFC331"/>
</linearGradient>
</defs>
</svg>
